<svg width="22" height="25" viewBox="0 0 22 25" fill="none" xmlns="http://www.w3.org/2000/svg">
<path d="M21.875 17.5V1.25C21.875 0.46875 21.4062 0 20.625 0H4.6875C2.03125 0 0 2.03125 0 4.6875V20.3125C0 22.9688 2.03125 25 4.6875 25H20.625C21.25 25 21.875 24.5312 21.875 23.75V22.9688C21.875 22.6562 21.7188 22.3438 21.4062 22.0312C21.25 21.25 21.25 19.0625 21.4062 18.4375C21.7188 18.2812 21.875 17.9688 21.875 17.5ZM7.03125 8.20312C7.03125 8.09952 7.0724 8.00017 7.14566 7.92691C7.21892 7.85365 7.31827 7.8125 7.42188 7.8125H10.1562V5.07812C10.1562 4.97452 10.1974 4.87517 10.2707 4.80191C10.3439 4.72865 10.4433 4.6875 10.5469 4.6875H12.8906C12.9942 4.6875 13.0936 4.72865 13.1668 4.80191C13.2401 4.87517 13.2812 4.97452 13.2812 5.07812V7.8125H16.0156C16.1192 7.8125 16.2186 7.85365 16.2918 7.92691C16.3651 8.00017 16.4062 8.09952 16.4062 8.20312V10.5469C16.4062 10.6505 16.3651 10.7498 16.2918 10.8231C16.2186 10.8963 16.1192 10.9375 16.0156 10.9375H13.2812V13.6719C13.2812 13.7755 13.2401 13.8748 13.1668 13.9481C13.0936 14.0213 12.9942 14.0625 12.8906 14.0625H10.5469C10.4433 14.0625 10.3439 14.0213 10.2707 13.9481C10.1974 13.8748 10.1562 13.7755 10.1562 13.6719V10.9375H7.42188C7.31827 10.9375 7.21892 10.8963 7.14566 10.8231C7.0724 10.7498 7.03125 10.6505 7.03125 10.5469V8.20312ZM18.5938 21.875H4.6875C3.75 21.875 3.125 21.25 3.125 20.3125C3.125 19.375 3.90625 18.75 4.6875 18.75H18.5938V21.875Z" fill="#F1EFEF"/>
</svg>
