<svg width="22" height="19" viewBox="0 0 22 19" fill="none" xmlns="http://www.w3.org/2000/svg">
<path d="M11.1365 10.993C14.3344 10.993 16.9289 8.73953 16.9289 5.96201C16.9289 3.18449 14.3344 0.93103 11.1365 0.93103C7.93859 0.93103 5.34408 3.18449 5.34408 5.96201C5.34408 8.73953 7.93859 10.993 11.1365 10.993ZM16.2853 12.111H14.0689C13.1759 12.4673 12.1823 12.67 11.1365 12.67C10.0906 12.67 9.1011 12.4673 8.20408 12.111H5.98768C3.14376 12.111 0.838867 14.1129 0.838867 16.583V17.142C0.838867 18.0678 1.70371 18.819 2.76967 18.819H19.5033C20.5693 18.819 21.4341 18.0678 21.4341 17.142V16.583C21.4341 14.1129 19.1292 12.111 16.2853 12.111Z" fill="black"/>
</svg>
