<svg width="40" height="30" viewBox="0 0 40 30" fill="none" xmlns="http://www.w3.org/2000/svg">
<path d="M17.007 2.00939L18.989 0.484314C19.8281 -0.161438 21.1851 -0.161438 22.0154 0.484314L39.3706 13.8322C40.2098 14.4779 40.2098 15.5221 39.3706 16.161L22.0154 29.5157C21.1762 30.1614 19.8192 30.1614 18.989 29.5157L17.007 27.9906C16.1589 27.338 16.1768 26.2732 17.0427 25.6343L27.8005 17.7479H2.14262C0.955251 17.7479 0 17.0128 0 16.0992V13.9008C0 12.9872 0.955251 12.2521 2.14262 12.2521H27.8005L17.0427 4.3657C16.1678 3.72681 16.15 2.66201 17.007 2.00939Z" fill="#0073DD"/>
</svg>
