<svg width="61" height="40" viewBox="0 0 61 40" fill="none" xmlns="http://www.w3.org/2000/svg">
<path d="M52.8146 20V11.6667H12.8987C11.5754 11.6667 10.3063 11.3155 9.37057 10.6904C8.43486 10.0652 7.90918 9.21739 7.90918 8.33333C7.90918 7.44928 8.43486 6.60143 9.37057 5.97631C10.3063 5.35119 11.5754 5 12.8987 5H47.8251V11.6667" stroke="black" stroke-width="2" stroke-linecap="round" stroke-linejoin="round"/>
<path d="M7.90918 8.3335V31.6668C7.90918 32.5509 8.43486 33.3987 9.37057 34.0239C10.3063 34.649 11.5754 35.0002 12.8987 35.0002H52.8146V26.6668" stroke="black" stroke-width="2" stroke-linecap="round" stroke-linejoin="round"/>
<path d="M45.3306 20C44.0073 20 42.7382 20.3512 41.8025 20.9763C40.8667 21.6014 40.3411 22.4493 40.3411 23.3333C40.3411 24.2174 40.8667 25.0652 41.8025 25.6904C42.7382 26.3155 44.0073 26.6667 45.3306 26.6667H55.3095V20H45.3306Z" stroke="black" stroke-width="2" stroke-linecap="round" stroke-linejoin="round"/>
</svg>
