<svg width="43" height="43" viewBox="0 0 43 43" fill="none" xmlns="http://www.w3.org/2000/svg">
<path d="M35.4184 17.7093C35.4184 28.3349 21.251 38.9604 21.251 38.9604C21.251 38.9604 7.08368 28.3349 7.08368 17.7093C7.08368 13.9519 8.57631 10.3484 11.2332 7.69151C13.8901 5.03462 17.4936 3.54199 21.251 3.54199C25.0085 3.54199 28.612 5.03462 31.2689 7.69151C33.9258 10.3484 35.4184 13.9519 35.4184 17.7093Z" stroke="black" stroke-width="1.97684" stroke-linecap="round" stroke-linejoin="round"/>
<path d="M21.251 23.022C24.1851 23.022 26.5637 20.6434 26.5637 17.7092C26.5637 14.7751 24.1851 12.3965 21.251 12.3965C18.3168 12.3965 15.9382 14.7751 15.9382 17.7092C15.9382 20.6434 18.3168 23.022 21.251 23.022Z" stroke="black" stroke-width="1.97684" stroke-linecap="round" stroke-linejoin="round"/>
</svg>
