<svg width="54" height="54" viewBox="0 0 54 54" fill="none" xmlns="http://www.w3.org/2000/svg">
<path d="M4.5 49.5H49.5" stroke="black" stroke-width="2" stroke-linecap="round" stroke-linejoin="round"/>
<path d="M14.31 39.15L9 38.25L4.5 29.25L6.975 28.0125C7.60311 27.696 8.29666 27.5312 9 27.5312C9.70334 27.5312 10.3969 27.696 11.025 28.0125L11.4075 28.2375C12.0356 28.554 12.7292 28.7189 13.4325 28.7189C14.1358 28.7189 14.8294 28.554 15.4575 28.2375L18 27L11.25 13.5L13.275 12.4875C14.0235 12.1193 14.8597 11.9664 15.69 12.0459C16.5204 12.1253 17.3124 12.434 17.9775 12.9375L27.0225 19.6875C27.6899 20.1954 28.486 20.5066 29.3208 20.5861C30.1557 20.6657 30.9962 20.5103 31.7475 20.1375L41.175 15.5025C42.3797 14.8952 43.7676 14.7589 45.0675 15.12L47.25 15.75C47.7009 15.8753 48.1183 16.0994 48.4718 16.4061C48.8252 16.7129 49.1059 17.0945 49.2934 17.5234C49.4808 17.9522 49.5704 18.4174 49.5555 18.8851C49.5407 19.3529 49.4218 19.8115 49.2075 20.2275L48.3525 21.9375C47.835 22.9725 47.0025 23.8275 45.945 24.3675L17.055 38.7C16.2055 39.1208 15.2448 39.2625 14.31 39.105V39.15Z" stroke="black" stroke-width="2" stroke-linecap="round" stroke-linejoin="round"/>
</svg>
