<svg width="54" height="54" viewBox="0 0 54 54" fill="none" xmlns="http://www.w3.org/2000/svg">
<path d="M4.5 49.5H49.5" stroke="black" stroke-width="2" stroke-linecap="round" stroke-linejoin="round"/>
<path d="M8.4825 24.2325L4.5 20.25L9 10.125L11.475 11.3625C12.7125 11.9925 13.5 13.2525 13.5 14.625C13.5 15.9975 14.2875 17.2575 15.525 17.8875L18 19.125L24.75 5.625L27.1125 6.8175C27.7691 7.14451 28.3357 7.62706 28.7632 8.22314C29.1906 8.81921 29.4659 9.51073 29.565 10.2375L31.185 22.3875C31.2841 23.1143 31.5594 23.8058 31.9868 24.4019C32.4143 24.9979 32.9809 25.4805 33.6375 25.8075L43.5375 30.7575C44.4825 31.2525 45.2925 31.995 45.81 32.9175L47.16 35.235C48.2625 37.215 47.025 39.69 44.775 39.96L42.12 40.2975C41.0625 40.4325 39.9825 40.2525 39.0375 39.7575L9.6525 25.0875C9.21887 24.8676 8.82375 24.5788 8.4825 24.2325Z" stroke="black" stroke-width="2" stroke-linecap="round" stroke-linejoin="round"/>
</svg>
